<svg width="182" height="203" viewBox="0 0 182 203" fill="none" xmlns="http://www.w3.org/2000/svg">
<path fill-rule="evenodd" clip-rule="evenodd" d="M179.87 161.09V203H0.529541V171.92C0.529541 161.25 2.68488 151.748 7.09419 143.505C11.5004 135.267 18.2511 128.087 27.21 121.928L27.2185 121.922L27.227 121.916C33.0061 118.001 39.85 114.402 47.7311 111.103L47.7424 111.098L47.7536 111.093C55.7983 107.802 66.6981 104.082 80.4145 99.9304C103.865 92.7147 118.691 86.6262 125.429 81.7411C132.031 76.9547 134.99 71.4857 134.99 65.27C134.99 56.7839 131.879 50.7617 125.795 46.7061C119.497 42.5074 109.671 40.19 95.8695 40.19C80.0331 40.19 68.4855 43.5413 60.7657 49.7829L60.7598 49.7876C53.3433 55.7531 49.4595 64.6082 49.4595 76.88V83.66H3.22954V75.8C3.22954 51.6865 11.1525 32.9206 27.3038 19.9987C43.5213 6.98785 66.7978 0.709961 96.6795 0.709961C123.128 0.709961 143.934 6.08205 158.693 17.2425C173.73 28.4761 181.22 44.2498 181.22 64.19C181.22 80.4567 175.506 94.0459 164.066 104.723C152.734 115.3 132.818 124.638 104.825 132.945C82.458 139.62 68.2387 145.267 61.6672 149.817L61.6455 149.832L61.6236 149.846C56.4855 153.272 53.4205 157.029 52.0624 161.09H179.87ZM48.9256 161.09C48.6552 162.068 48.4631 163.068 48.3495 164.09H176.87V200H3.52954V171.92C3.52954 161.66 5.59954 152.66 9.73954 144.92C13.8795 137.18 20.2695 130.34 28.9095 124.4C34.4895 120.62 41.1495 117.11 48.8895 113.87C56.8095 110.63 67.6096 106.94 81.2896 102.8C104.69 95.6 119.99 89.39 127.19 84.17C134.39 78.95 137.99 72.65 137.99 65.27C137.99 55.91 134.48 48.89 127.46 44.21C120.44 39.53 109.91 37.19 95.8695 37.19C79.6695 37.19 67.3395 40.61 58.8795 47.45C50.5995 54.11 46.4595 63.92 46.4595 76.88V80.66H6.22954V75.8C6.22954 52.4 13.8795 34.58 29.1795 22.34C44.6595 9.91996 67.1595 3.70996 96.6795 3.70996C122.78 3.70996 142.85 9.01997 156.89 19.64C171.11 30.26 178.22 45.11 178.22 64.19C178.22 79.67 172.82 92.45 162.02 102.53C151.22 112.61 131.87 121.79 103.97 130.07C81.6495 136.73 66.9795 142.49 59.9595 147.35C54.0471 151.292 50.3692 155.872 48.9256 161.09Z" fill="black"/>
</svg>
