<svg width="186" height="208" viewBox="0 0 186 208" fill="none" xmlns="http://www.w3.org/2000/svg">
<path fill-rule="evenodd" clip-rule="evenodd" d="M6.30485 71.18C6.44009 49.8553 14.1795 33.3053 29.523 21.53C45.003 9.64996 66.8731 3.70996 95.1331 3.70996C121.053 3.70996 141.573 8.74997 156.693 18.83C171.813 28.73 179.373 42.32 179.373 59.6C179.373 70.4 176.673 79.22 171.273 86.06C166.915 91.6207 160.611 95.9266 152.363 98.9777C150.732 99.5808 149.026 100.135 147.243 100.64C149.036 101.095 150.76 101.598 152.414 102.148C161.883 105.3 169.07 110.017 173.973 116.3C179.913 123.5 182.883 133.13 182.883 145.19C182.883 163.73 174.873 178.22 158.853 188.66C143.013 199.1 120.873 204.32 92.4331 204.32C61.293 204.32 38.703 198.92 24.663 188.12C10.803 177.14 3.87305 159.41 3.87305 134.93V131.69H44.1031V133.85C44.1031 146.27 47.883 155.36 55.4431 161.12C63.183 166.7 75.513 169.49 92.4331 169.49C108.093 169.49 120.063 167.15 128.343 162.47C136.623 157.61 140.763 150.68 140.763 141.68C140.763 133.04 137.703 127.01 131.583 123.59C125.463 119.99 114.573 118.19 98.9131 118.19H71.913V87.68H98.3731C112.233 87.68 122.313 85.88 128.613 82.28C134.913 78.5 138.063 72.56 138.063 64.46C138.063 55.82 134.283 49.25 126.723 44.75C119.343 40.25 108.543 38 94.3231 38C78.6631 38 66.6931 40.97 58.413 46.91C50.133 52.85 45.903 61.4 45.723 72.56V74.18H6.30305V71.75C6.30305 71.5596 6.30365 71.3696 6.30485 71.18ZM127.097 79.6909C132.369 76.5163 135.063 71.6236 135.063 64.46C135.063 56.9011 131.86 51.2991 125.189 47.3278L125.175 47.3197L125.161 47.3114C118.465 43.228 108.311 41 94.3231 41C78.975 41 67.7247 43.922 60.1618 49.3476C52.7404 54.6716 48.8949 62.2814 48.723 72.5846V77.18H3.30305V71.75C3.30305 49.3318 11.3905 31.664 27.6966 19.15C43.8894 6.72297 66.4986 0.709961 95.1331 0.709961C121.398 0.709961 142.566 5.81067 158.347 16.3268C174.26 26.7501 182.373 41.2575 182.373 59.6C182.373 70.9058 179.539 80.4272 173.633 87.9122C169.47 93.2232 163.763 97.3897 156.645 100.489C164.961 103.748 171.571 108.36 176.313 114.422C182.795 122.296 185.883 132.657 185.883 145.19C185.883 164.779 177.331 180.196 160.498 191.169C143.981 202.053 121.182 207.32 92.4331 207.32C61.0786 207.32 37.6673 201.908 22.8339 190.498L22.8169 190.485L22.8002 190.471C7.97295 178.725 0.873047 159.953 0.873047 134.93V128.69H47.1031V133.85C47.1031 145.628 50.6524 153.681 57.2295 158.71C64.1988 163.717 75.7391 166.49 92.4331 166.49C107.859 166.49 119.219 164.173 126.846 159.87C134.268 155.506 137.763 149.524 137.763 141.68C137.763 133.829 135.057 128.968 130.12 126.209L130.091 126.193L130.062 126.176C124.699 123.021 114.54 121.19 98.9131 121.19H68.913V84.68H98.3731C112.085 84.68 121.498 82.8787 127.097 79.6909Z" fill="black"/>
</svg>
