<svg width="149" height="119" viewBox="0 0 149 119" fill="none" xmlns="http://www.w3.org/2000/svg">
<path d="M145.744 61.73L104.704 115.19H70.1442L114.424 57.68L75.0042 3.40999H106.594L145.744 57.68V61.73ZM84.4542 60.92L41.2542 115.19H6.69418L52.8642 56.87L13.7142 3.40999H45.8442L84.4542 56.33V60.92Z" fill="white"/>
<path d="M145.744 61.73L148.124 63.5568L148.744 62.7487V61.73H145.744ZM104.704 115.19V118.19H106.183L107.084 117.017L104.704 115.19ZM70.1442 115.19L67.7671 113.36L64.0481 118.19H70.1442V115.19ZM114.424 57.68L116.801 59.5102L118.17 57.7323L116.851 55.9169L114.424 57.68ZM75.0042 3.40999V0.409996H69.1172L72.5769 5.17308L75.0042 3.40999ZM106.594 3.40999L109.027 1.65485L108.129 0.409996H106.594V3.40999ZM145.744 57.68H148.744V56.7108L148.177 55.9249L145.744 57.68ZM84.4542 60.92L86.8013 62.7884L87.4542 61.9682V60.92H84.4542ZM41.2542 115.19V118.19H42.7006L43.6013 117.058L41.2542 115.19ZM6.69418 115.19L4.34204 113.328L0.492875 118.19H6.69418V115.19ZM52.8642 56.87L55.2163 58.7321L56.6344 56.9408L55.2846 55.0975L52.8642 56.87ZM13.7142 3.40999V0.409996H7.79879L11.2938 5.1825L13.7142 3.40999ZM45.8442 3.40999L48.2677 1.6418L47.369 0.409996H45.8442V3.40999ZM84.4542 56.33H87.4542V55.3519L86.8777 54.5618L84.4542 56.33ZM143.365 59.9032L102.325 113.363L107.084 117.017L148.124 63.5568L143.365 59.9032ZM104.704 112.19H70.1442V118.19H104.704V112.19ZM72.5212 117.02L116.801 59.5102L112.047 55.8498L67.7671 113.36L72.5212 117.02ZM116.851 55.9169L77.4314 1.64691L72.5769 5.17308L111.997 59.4431L116.851 55.9169ZM75.0042 6.40999H106.594V0.409996H75.0042V6.40999ZM104.161 5.16515L143.311 59.4351L148.177 55.9249L109.027 1.65485L104.161 5.16515ZM142.744 57.68V61.73H148.744V57.68H142.744ZM82.107 59.0516L38.907 113.322L43.6013 117.058L86.8013 62.7884L82.107 59.0516ZM41.2542 112.19H6.69418V118.19H41.2542V112.19ZM9.04632 117.052L55.2163 58.7321L50.512 55.0079L4.34204 113.328L9.04632 117.052ZM55.2846 55.0975L16.1346 1.6375L11.2938 5.1825L50.4438 58.6425L55.2846 55.0975ZM13.7142 6.40999H45.8442V0.409996H13.7142V6.40999ZM43.4207 5.17818L82.0306 58.0982L86.8777 54.5618L48.2677 1.6418L43.4207 5.17818ZM81.4542 56.33V60.92H87.4542V56.33H81.4542Z" fill="black"/>
</svg>
