<svg width="44" height="44" viewBox="0 0 44 44" fill="none" xmlns="http://www.w3.org/2000/svg">
<path d="M22.6529 35.864C21.3329 35.864 19.9409 35.732 18.4769 35.468C17.0129 35.228 15.5729 34.844 14.1569 34.316C12.7649 33.764 11.5289 33.08 10.4489 32.264H7.82092C6.52492 30.896 5.87692 28.412 5.87692 24.812C5.87692 23.924 5.96092 23.024 6.12892 22.112C6.29692 21.2 6.52492 20.372 6.81292 19.628C7.10092 18.884 7.42492 18.308 7.78492 17.9C7.80892 17.876 7.95292 17.876 8.21692 17.9C8.48092 17.924 8.75692 17.948 9.04492 17.972C9.35692 17.972 9.60892 17.972 9.80092 17.972C10.2089 17.972 10.5689 17.948 10.8809 17.9C11.1929 17.828 11.5529 17.672 11.9609 17.432C12.3689 17.192 12.9089 16.808 13.5809 16.28C14.6849 15.392 15.6569 14.78 16.4969 14.444C17.3609 14.108 18.3329 13.94 19.4129 13.94C21.8849 13.94 23.8889 14.252 25.4249 14.876C26.2169 15.188 26.9129 15.44 27.5129 15.632C28.1129 15.824 28.5809 15.968 28.9169 16.064C29.3489 16.16 29.7329 16.34 30.0689 16.604C30.5969 16.628 31.1129 16.664 31.6169 16.712C32.1449 16.76 32.6729 16.808 33.2009 16.856C34.0409 16.952 34.9289 17.06 35.8649 17.18C36.8249 17.276 37.6769 17.372 38.4209 17.468C39.9089 17.636 40.9769 17.948 41.6249 18.404C42.2969 18.86 42.6329 19.52 42.6329 20.384C42.6329 22.04 41.4569 22.868 39.1049 22.868C38.6969 22.868 38.1089 22.856 37.3409 22.832C36.5729 22.784 35.8169 22.76 35.0729 22.76C34.4969 22.76 33.9329 22.772 33.3809 22.796C32.8289 22.82 32.2889 22.856 31.7609 22.904C32.1449 23.456 32.3369 24.152 32.3369 24.992C32.3369 26.072 31.8209 26.84 30.7889 27.296C30.4529 27.44 30.2849 27.62 30.2849 27.836C30.2849 28.028 30.3449 28.268 30.4649 28.556C30.5849 28.82 30.6449 29.12 30.6449 29.456C30.6449 30.704 30.0569 31.532 28.8809 31.94C28.7129 31.988 28.6049 32.06 28.5569 32.156C28.5329 32.228 28.5209 32.396 28.5209 32.66C28.5209 33.74 28.0169 34.544 27.0089 35.072C26.0249 35.6 24.5729 35.864 22.6529 35.864ZM22.6529 34.64H24.0929C23.8049 34.544 23.4569 34.424 23.0489 34.28C22.6649 34.112 22.1969 33.884 21.6449 33.596C20.9249 33.212 20.2769 32.804 19.7009 32.372C19.1249 31.916 18.7049 31.484 18.4409 31.076C18.3689 30.908 18.3329 30.668 18.3329 30.356C18.3329 30.116 18.3809 29.9 18.4769 29.708C18.5729 29.492 18.6809 29.312 18.8009 29.168C18.3449 28.928 17.9249 28.7 17.5409 28.484C17.1809 28.268 16.9049 28.076 16.7129 27.908C16.6169 27.788 16.5329 27.644 16.4609 27.476C16.3889 27.284 16.3409 27.068 16.3169 26.828C15.9809 26.948 15.6329 27.032 15.2729 27.08C14.9129 27.104 14.5289 27.116 14.1209 27.116C13.5209 27.116 12.9809 27.056 12.5009 26.936V25.676C12.6929 25.724 12.9449 25.76 13.2569 25.784C13.5929 25.808 13.8809 25.82 14.1209 25.82C14.6249 25.82 15.0809 25.796 15.4889 25.748C15.8969 25.676 16.2569 25.556 16.5689 25.388C16.9289 24.764 17.4689 24.416 18.1889 24.344C18.0689 23.984 18.0089 23.636 18.0089 23.3C18.0089 22.7 18.2009 22.172 18.5849 21.716C18.9689 21.26 19.5329 21.032 20.2769 21.032C20.5409 21.032 20.8049 21.068 21.0689 21.14C21.3569 21.212 21.6449 21.308 21.9329 21.428C22.0289 21.308 22.1249 21.176 22.2209 21.032C22.3169 20.888 22.4129 20.732 22.5089 20.564C21.6929 20.348 21.1409 20.096 20.8529 19.808L21.8249 18.944C21.9449 19.064 22.2329 19.196 22.6889 19.34C23.1449 19.46 23.6849 19.58 24.3089 19.7C24.9329 19.82 25.5449 19.928 26.1449 20.024C26.7449 20.096 27.2249 20.132 27.5849 20.132C28.0649 20.132 28.4969 19.976 28.8809 19.664C29.2889 19.352 29.4929 18.86 29.4929 18.188V17.828H29.4569C29.4569 17.78 29.3609 17.696 29.1689 17.576C28.9769 17.456 28.7849 17.372 28.5929 17.324C28.2809 17.228 27.8009 17.084 27.1529 16.892C26.5049 16.676 25.7609 16.4 24.9209 16.064C23.5529 15.512 21.7169 15.236 19.4129 15.236C18.4769 15.236 17.6489 15.38 16.9289 15.668C16.2329 15.956 15.3809 16.508 14.3729 17.324C13.6529 17.876 13.0529 18.296 12.5729 18.584C12.1169 18.872 11.6729 19.064 11.2409 19.16C10.8329 19.232 10.3529 19.268 9.80092 19.268C9.63292 19.268 9.41692 19.268 9.15292 19.268C8.88892 19.244 8.64892 19.22 8.43292 19.196C8.07292 19.82 7.77292 20.66 7.53292 21.716C7.29292 22.748 7.17292 23.78 7.17292 24.812C7.17292 27.668 7.59292 29.72 8.43292 30.968H10.8809C11.7689 31.712 12.8369 32.36 14.0849 32.912C15.3329 33.464 16.6889 33.896 18.1529 34.208C19.6169 34.496 21.1169 34.64 22.6529 34.64ZM4.36492 33.452C3.78892 33.452 3.29692 33.176 2.88892 32.624C2.50492 32.072 2.20492 31.364 1.98892 30.5C1.77292 29.636 1.61692 28.724 1.52092 27.764C1.42492 26.78 1.37692 25.88 1.37692 25.064C1.37692 24.248 1.42492 23.36 1.52092 22.4C1.61692 21.416 1.77292 20.492 1.98892 19.628C2.22892 18.764 2.54092 18.056 2.92492 17.504C3.30892 16.928 3.78892 16.64 4.36492 16.64H7.06492C7.54492 16.64 7.78492 16.928 7.78492 17.504V17.576C7.64092 17.408 7.46092 17.324 7.24492 17.324C6.74092 17.324 6.32092 17.576 5.98492 18.08C5.64892 18.56 5.38492 19.196 5.19292 19.988C5.02492 20.756 4.89292 21.596 4.79692 22.508C4.72492 23.396 4.68892 24.248 4.68892 25.064C4.68892 25.88 4.72492 26.744 4.79692 27.656C4.89292 28.568 5.03692 29.42 5.22892 30.212C5.44492 30.98 5.70892 31.616 6.02092 32.12C6.35692 32.6 6.76492 32.84 7.24492 32.84C7.46092 32.84 7.64092 32.72 7.78492 32.48V32.732C7.78492 32.924 7.72492 33.092 7.60492 33.236C7.50892 33.38 7.32892 33.452 7.06492 33.452H4.36492ZM26.7929 22.868C26.9129 22.436 27.2009 22.112 27.6569 21.896C28.1129 21.68 28.6049 21.572 29.1329 21.572C29.4689 21.572 29.7329 21.584 29.9249 21.608C30.1169 21.608 30.2969 21.632 30.4649 21.68C31.1849 21.632 31.9529 21.584 32.7689 21.536C33.6089 21.488 34.3769 21.464 35.0729 21.464C35.8409 21.464 36.5969 21.488 37.3409 21.536C38.1089 21.56 38.6969 21.572 39.1049 21.572C39.9689 21.572 40.5569 21.476 40.8689 21.284C41.1809 21.092 41.3369 20.792 41.3369 20.384C41.3369 19.928 41.1089 19.592 40.6529 19.376C40.2209 19.136 39.4169 18.932 38.2409 18.764C37.5209 18.644 36.6929 18.536 35.7569 18.44C34.8449 18.344 33.9329 18.248 33.0209 18.152C32.6849 18.104 32.3249 18.068 31.9409 18.044C31.5569 18.02 31.1609 17.996 30.7529 17.972V18.152C30.7529 19.208 30.4409 20.024 29.8169 20.6C29.2169 21.152 28.4969 21.428 27.6569 21.428C27.2009 21.428 26.6129 21.38 25.8929 21.284C25.1729 21.188 24.4649 21.056 23.7689 20.888C23.6729 21.08 23.5649 21.26 23.4449 21.428C23.3489 21.572 23.2529 21.728 23.1569 21.896H23.1929C23.5049 21.992 23.9489 22.148 24.5249 22.364C25.1009 22.556 25.8569 22.724 26.7929 22.868ZM28.0529 27.008C28.5569 27.008 29.2409 26.744 30.1049 26.216C30.5129 25.976 30.7649 25.796 30.8609 25.676C30.9809 25.556 31.0409 25.364 31.0409 25.1C31.0409 24.668 30.9929 24.26 30.8969 23.876C30.8009 23.468 30.5849 23.132 30.2489 22.868C30.1289 22.844 30.0089 22.832 29.8889 22.832C29.7929 22.832 29.6969 22.832 29.6009 22.832C28.9049 22.832 28.4369 22.964 28.1969 23.228C27.9569 23.492 27.8369 23.852 27.8369 24.308C26.6609 24.188 25.7009 24.02 24.9569 23.804C24.2369 23.588 23.5409 23.348 22.8689 23.084C22.4129 22.94 21.9449 22.748 21.4649 22.508C21.0089 22.268 20.5889 22.172 20.2049 22.22C20.0129 22.244 19.8089 22.328 19.5929 22.472C19.3769 22.592 19.2689 22.82 19.2689 23.156C19.2689 23.3 19.2929 23.468 19.3409 23.66C19.4129 23.852 19.4609 23.972 19.4849 24.02C19.8209 24.284 20.3369 24.62 21.0329 25.028C21.7529 25.436 22.7009 25.844 23.8769 26.252C24.5729 26.516 25.3169 26.708 26.1089 26.828C26.9249 26.948 27.5729 27.008 28.0529 27.008ZM27.4769 31.004C28.0289 31.004 28.4969 30.896 28.8809 30.68C29.2889 30.464 29.4929 30.104 29.4929 29.6C29.4929 29.312 29.4569 29.036 29.3849 28.772C29.3369 28.508 29.2769 28.292 29.2049 28.124C28.9169 28.244 28.5929 28.304 28.2329 28.304C27.9689 28.304 27.5729 28.268 27.0449 28.196C26.5169 28.124 25.9529 28.028 25.3529 27.908C24.7529 27.788 24.2009 27.644 23.6969 27.476C22.8569 27.212 22.0649 26.9 21.3209 26.54C20.5769 26.18 19.9169 25.82 19.3409 25.46C19.0289 25.34 18.7649 25.28 18.5489 25.28C18.2129 25.28 17.9489 25.4 17.7569 25.64C17.5889 25.88 17.5049 26.156 17.5049 26.468C17.5049 26.78 17.5889 27.056 17.7569 27.296C17.9969 27.464 18.3809 27.692 18.9089 27.98C19.4369 28.268 20.0129 28.568 20.6369 28.88C21.2849 29.168 21.8729 29.42 22.4009 29.636C23.4569 30.044 24.3929 30.38 25.2089 30.644C26.0489 30.884 26.8049 31.004 27.4769 31.004ZM26.1089 33.776C26.6849 33.776 27.0449 33.608 27.1889 33.272C27.3569 32.912 27.4409 32.6 27.4409 32.336C27.4409 32.24 27.4289 32.168 27.4049 32.12H27.1529C26.1689 32.12 25.2329 31.952 24.3449 31.616C23.4809 31.256 22.7129 30.944 22.0409 30.68C21.7529 30.56 21.4289 30.428 21.0689 30.284C20.7089 30.116 20.3489 29.936 19.9889 29.744C19.7489 29.984 19.6049 30.284 19.5569 30.644C19.7489 30.908 20.0609 31.22 20.4929 31.58C20.9249 31.916 21.3809 32.216 21.8609 32.48C22.2929 32.72 22.6889 32.936 23.0489 33.128C23.4329 33.32 23.8529 33.476 24.3089 33.596C24.7889 33.716 25.3889 33.776 26.1089 33.776Z" fill="black"/>
</svg>
