<?xml version="1.0" encoding="utf-8"?>
<!-- Generator: Adobe Illustrator 22.0.0, SVG Export Plug-In . SVG Version: 6.00 Build 0)  -->
<svg version="1.1" id="Layer_1" xmlns="http://www.w3.org/2000/svg" xmlns:xlink="http://www.w3.org/1999/xlink" x="0px" y="0px"
	 viewBox="0 0 242.7 86.5" style="enable-background:new 0 0 242.7 86.5;" xml:space="preserve">
<title>LogoNS</title>
<path d="M17,20.2H7.3v10.2h-7v-26h7v10.3H17V4.5h7v26h-7L17,20.2z"/>
<path d="M26.8,12.5c0.4-6.6,5.8-8.8,11.8-8.8c6.2,0,11.2,2.2,11.2,9v17.8h-7v-5h-0.2c-1.2,3.5-4.5,5.9-8.2,5.8c-4.8,0-8.2-2.2-8.2-7
	s4-7.1,8.3-8.1s8.4-1.4,8.4-4.4c0-2.1-1.5-3.2-4.2-3.2c-3,0-4.6,1.2-4.8,4H26.8z M37.3,19.5c-2.2,0.6-4.1,1.7-4.1,4
	c0,2,1.4,3.2,3.6,3.2c4.8,0,6-5.5,6-9.4C41.6,18.4,39.3,19,37.3,19.5L37.3,19.5z"/>
<path d="M60.9,4.5h7.9l9.3,26h-7.5l-6-18.4l-6,18.4h-7.1L60.9,4.5z"/>
<path d="M91.1,3.8c8.5,0,13.2,6.1,13.2,13.7s-4.7,13.8-13.2,13.8s-13.2-6.1-13.2-13.8S82.6,3.8,91.1,3.8z M91.1,26
	c4.5,0,6.2-3.8,6.2-8.5S95.6,9,91.1,9s-6.2,3.8-6.2,8.5S86.7,26,91.1,26L91.1,26z"/>
<path d="M130.1,22c0,3-2,9.2-12.3,9.2c-7.5,0-11.8-3.2-11.8-8.2c0-9.7,16.5-7.2,16.5-11.5c0-1.6-1.5-3-4.2-3c-4.8,0-4.8,3.5-4.8,3.5
	h-6.8c0-2.5,1.8-8.2,11.5-8.2c7,0,11.3,3.2,11.3,7.8c0,9.7-16.5,6.2-16.5,11.7c0,1.5,1,3.2,4.8,3.2c5.5,0,5.5-4.5,5.5-4.5H130.1z"/>
<path d="M144.9,3.8c8.5,0,13.2,6.1,13.2,13.7s-4.7,13.8-13.2,13.8s-13.2-6.1-13.2-13.8S136.3,3.8,144.9,3.8z M144.9,26
	c4.5,0,6.2-3.8,6.2-8.5S149.3,9,144.9,9s-6.2,3.8-6.2,8.5S140.4,26,144.9,26L144.9,26z"/>
<path d="M160.4,4.5h12.5c6.8,0,10.2,2.2,10.2,7c0,2.5-1.6,4.6-4,5.2V17c2.8,0.6,4.8,3.1,4.8,6c0,5-3.2,7.5-10.2,7.5h-13.2V4.5z
	 M172.4,15c2.5,0,3.8-1,3.8-2.8s-1-2.8-3.2-2.8h-5.5V15H172.4z M167.4,19.5v6h6c2.2,0,3.5-1,3.5-3s-1.5-3-4-3H167.4z"/>
<path d="M185.9,4.5h7V14h3c7.2,0,11.2,3.2,11.2,8.2s-4,8.2-11.2,8.2h-10V4.5z M192.9,19v6.5h2c3.8,0,5.2-1,5.2-3.2s-1.5-3.2-5.2-3.2
	H192.9z M216.1,30.5h-7v-26h7V30.5z"/>
<path d="M242.9,30.5h-6.8v-4.2h-0.2c-1.5,3-4.6,5-8,5c-7.2,0-9.2-4.8-9.2-10.8v-16h7V19c0,4.5,1.2,6.5,4.5,6.5
	c3.8,0,5.8-2.2,5.8-7.5V4.5h7V30.5z M221.1,0h19.2v2h-19.2V0z"/>
<path d="M13,58.8C24.5,58.8,25.3,69,25.3,69h-7c0,0-0.2-5-5.2-5c-4.4,0-6,3.8-6,8.5S8.6,81,13,81c5,0,5.2-5,5.2-5h7
	c0,0-0.8,10.2-12.2,10.2c-8.5,0-13-6.1-13-13.8S4.5,58.8,13,58.8z"/>
<path d="M42.4,58.8c8.6,0,13.2,6.1,13.2,13.8s-4.7,13.8-13.2,13.8s-13.2-6.1-13.2-13.8S33.8,58.8,42.4,58.8z M42.4,81
	c4.4,0,6.2-3.8,6.2-8.5S46.8,64,42.4,64s-6.2,3.8-6.2,8.5S37.9,81,42.4,81L42.4,81z"/>
<path d="M59.7,59.5h12.5c6.8,0,10.2,2.2,10.2,7c0,2.5-1.6,4.6-4,5.2V72c2.8,0.6,4.8,3.1,4.8,6c0,5-3.2,7.5-10.2,7.5H59.7V59.5z
	 M71.7,70c2.5,0,3.8-1,3.8-2.8s-1-2.8-3.2-2.8h-5.5V70H71.7z M66.7,74.5v6h6c2.2,0,3.5-1,3.5-3s-1.5-3-4-3H66.7z"/>
<path d="M99.6,58.8c8.5,0,12.5,6.1,12.5,13.8c0,0.6,0,1.5,0,1.5H93.6c0.3,4,2,7,6.2,7c2.4,0,4.5-1.6,5-4h7c0,0-1.5,9.2-12.2,9.2
	c-8.8,0-13-6.1-13-13.8S91,58.8,99.6,58.8z M93.8,69.5h11c-0.5-3.2-1.9-5.5-5.3-5.5S94.4,66.3,93.8,69.5L93.8,69.5z"/>
<path d="M116.3,55h37.5v2h-37.5V55z M131.6,71c0-4.5-0.9-6.5-3.7-6.5c-3,0-4.6,2.2-4.6,7.5v13.5h-7v-26h6.8v4.3h0.2c0,0,1.8-5,7-5
	c4.2,0,6.5,2,7.5,5h0h0.2c0,0,2.2-5,7.5-5c6.5,0,8.2,4.8,8.2,10.8v16h-7V71c0-4.5-0.9-6.5-3.6-6.5c-3,0-4.6,2.2-4.6,7.5v13.5h-7V71z
	"/>
<path d="M176.1,75.2h-9.8v10.2h-7v-26h7v10.3h9.8V59.5h7v26h-7V75.2z"/>
<path d="M212.9,85.5h-6.8v-4.2h-0.2c-1.5,3-4.6,5-8,5c-7.2,0-9.2-4.8-9.2-10.8v-16h7V74c0,4.5,1.2,6.5,4.5,6.5
	c3.8,0,5.8-2.2,5.8-7.5V59.5h7V85.5z"/>
<path d="M218.5,59.5h7V70l9.2-10.5h8.2l-9.8,10.1l10.3,15.9h-8.5l-6.6-10.9l-2.9,3v7.9h-7V59.5z"/>
</svg>
