<?xml version="1.0" encoding="utf-8"?>
<!-- Generator: Adobe Illustrator 22.0.0, SVG Export Plug-In . SVG Version: 6.00 Build 0)  -->
<svg version="1.1" id="Layer_1" xmlns="http://www.w3.org/2000/svg" xmlns:xlink="http://www.w3.org/1999/xlink" x="0px" y="0px"
	 viewBox="0 0 1033 338.7" style="enable-background:new 0 0 1033 338.7;" xml:space="preserve">
<style type="text/css">
	.st0{fill:#FFFFFF;}
	.st1{fill:none;stroke:#000000;stroke-miterlimit:10;}
	.st2{fill:#FF6464;}
	.st3{font-family:'HelveticaNeue';}
	.st4{font-size:25.01px;}
	.st5{font-size:30.87px;}
	.st6{font-size:20.09px;}
	.st7{font-size:32.12px;}
</style>
<title>AiNS</title>
<ellipse class="st0" cx="537.4" cy="252.8" rx="495.8" ry="85.4"/>
<path class="st1" d="M396.1,193.8c-5.1,0.8-43.8,7.6-58.2,35.3c-1.7,3.3-7.7,14.8-4.5,27.4c8.7,33.8,79.3,54.4,134.3,51.8l2.6-0.1
	c10.3-0.6,63.2-4.5,104.7-38.8c2.1-1.8,5.5-4.7,9.5-8.6"/>
<path class="st1" d="M436.5,260c16.4-5.2,34.9-10.4,55.4-14.8c17.8-3.8,34.5-6.6,49.9-8.6"/>
<path class="st1" d="M691.3,199.6c4.3,1.6,30.3,11.6,35.3,32.5c4.2,17.1-8.2,31.3-15.1,39.2c-41.6,47.1-145.7,46.7-166.6,46.4
	c-1.9-7.3-3.8-14.5-5.7-21.8"/>
<path class="st1" d="M527.9,58.5c-1,6.1-0.2,12.3,2.3,18c1.9,4.3,4.7,8.3,8.1,11.5c3.5-4.5,6.3-9.5,8.1-14.9
	c1.5-4.6,2.3-9.3,2.3-14.1"/>
<path class="st1" d="M554.4,55l5.1,4.4l-7.6,4.6l8.1,2.7L541.7,89"/>
<path class="st1" d="M525.3,55.5l-9.6,7.5l7.1,2.4l-6.9,4.3L532.9,89"/>
<path d="M538.2,58.5c-0.4,0-0.9,2.1-1.4,5.4c-0.5,3.6-1.1,9-1.7,16.3l4.8,0.6C539.5,62.8,538.8,58.5,538.2,58.5z"/>
<path class="st2" d="M626.6,208.5c-5.5-0.5-10.1,3.5-10.3,8.6c-0.2,6.6,7.3,13.2,13.8,12.6c4.5-0.4,8-4,8.2-8.5
	C638.6,215.2,632.9,209,626.6,208.5z"/>
<path class="st1" d="M639.1,163l-26.4,35l32.7,30.9c3.7-1.4,61-23.4,66-68c2.9-26-13.5-45.8-22.7-56.5
	c-34.6-40.5-90.7-49.2-115.9-53.1c-28.5-4.4-53.1-1-63.9,0.5c-14.1,2-28.1,5.2-41.6,9.7c-22.5,7.5-89.7,30-96,73.7
	C367,165.2,391,208.4,430,210c27,1.1,55.7-17.9,67.5-47.5l-26.3-25.1l-34.8,21.5"/>
<path d="M573.1,192.4l-52.4-0.9L509.9,159l74.2,0.1C580.5,170.2,576.8,181.3,573.1,192.4z"/>
<path class="st2" d="M520.9,7.2c-9.9,9.3-11.3,26.6-3.3,36.8c10.3,13.2,33.3,11.9,43.3-1.3c6.7-8.8,7.2-23.4,0-32.7
	C551.7-2,532.2-3.5,520.9,7.2z"/>
<path class="st1" d="M531.6,33.4c0.7,3.1,3.3,4.4,6.4,4.7c3.3,0.3,6.4-0.6,7.7-3.7"/>
<path class="st2" d="M490.4,122.9c-6.2,5.8-7,15.9-2.1,22.2c6.4,8.2,20.7,7.4,26.9-0.8c4.3-5.8,4.3-13.8,0-19.6
	C509.5,117.2,497.5,116.3,490.4,122.9z"/>
<path class="st1" d="M497.5,129.8c-1,0,1-17.4-0.3-25.5c-0.2-1-0.1-2,0.5-2.9c1.3-1.8,4.8-2.1,6.3-0.6c1.1,1,0.9,2.8,0.8,3.5
	c-1,10.1-1.4,24.2-1.3,24.2s0.1-0.4,0.3-2c0.4-2.6,0.5-5.3,0.3-7.9c0,0-0.7-10.9,0.7-14.3c0.2-0.4,0.4-0.8,0.8-1.1
	c1.3-1.2,4-1.6,4.9-0.3c0.4,0.5,0.5,1.2,0.4,1.9c0,7.1,0,14.3-0.1,21.4c1.3-0.3,3.1-0.8,5.2-1.5c6.3-1.9,8.1-3.1,9.3-2.1
	s1.4,4.1,0.2,6c-1.7,2.6-5.2,1.8-7.6,4.8c-0.8,1.1-1.4,2.3-1.6,3.7"/>
<path class="st1" d="M483.5,131c0-3.6-0.3-7.2-1-10.8c-0.5-2.1-0.6-4.3-0.4-6.5c0-0.8,0.2-1.6,0.5-2.3c1.2-2.4,4.3-3,5.9-1.3
	c0.9,1,1.2,2.5,1.4,5.9c0.5,7.4,0,14.5-0.2,14.5s0.7-6.6,0.2-14.5c-0.1-2.2,0-4.5,0.4-6.7c0.1-1.3,0.5-2.5,1.1-3.6
	c0.9-1.4,2.6-2.4,3.8-1.5s1.4,2.8,1.5,4.1c0.8,6.7,1.4,21.2,0.6,21.2"/>
<path class="st1" d="M518.7,23.6c1.5-1.3,3.3-2.2,5.2-2.7c2.6-0.6,5.4-0.4,7.9,0.6"/>
<path class="st1" d="M546.7,22.4c1.7-1,3.6-1.6,5.6-1.7c2.7-0.2,5.4,0.5,7.7,2"/>
<circle cx="130.3" cy="198.4" r="16"/>
<text transform="matrix(1 0 0 1 124.5734 205.82)" class="st0 st3 st4">₽</text>
<path d="M307.4,149.3c4.8-4.8,5.1-11.9,5-13.1c-0.1-1.5,1.2,8.2,6.3,14.1c4,4.7,9.9,6.3,13.8,6.9c-3.9-0.1-9.7,0.4-13.3,4.4
	c-4.2,4.7-4.9,13.2-5,13.2s0-0.2,0-0.2s-0.5-7.5-9.7-15c-3.1-2.6-6.7-4.6-10.4-6.1C295.2,153.9,302.3,154.4,307.4,149.3z"/>
<path d="M8,207.6c1.9-2.2,3-4.9,3-7.8c0-0.9,0.7,4.9,3.8,8.5c2.4,2.8,5.9,3.8,8.3,4.1c-2.3,0-5.8,0.3-8,2.6c-2.5,2.8-2.9,7.9-3,7.9
	s0-0.1,0-0.1s-0.3-4.5-5.8-9c-1.9-1.5-4-2.7-6.2-3.6C2.9,210.6,5.8,209.6,8,207.6z"/>
<path d="M910.9,269.5c4.8-4.8,5.1-11.9,5-13.1c-0.1-1.5,1.2,8.2,6.3,14.1c4,4.7,9.9,6.3,13.8,6.9c-3.9-0.1-9.7,0.4-13.3,4.4
	c-4.2,4.7-4.9,13.2-5,13.2s0-0.2,0-0.2s-0.5-7.5-9.7-15c-3.1-2.5-6.7-4.6-10.4-6.1C898.6,274,905.8,274.5,910.9,269.5z"/>
<path d="M933.3,163.6c1.5-1.6,2.3-3.8,2.3-6c0-0.7,0.6,3.8,2.9,6.5c1.7,1.8,3.9,2.9,6.3,3.2c-1.8,0-4.5,0.2-6.1,2
	c-2,2.1-2.2,6.1-2.3,6.1s0-0.1,0-0.1s-0.2-3.5-4.5-6.9c-1.4-1.2-3.1-2.1-4.8-2.8C929.4,165.8,931.6,165.1,933.3,163.6z"/>
<path d="M769.3,121.8c2.5-2.6,1.9-7,2.5-7c0.3,0,0.4,1.4,1.1,3.4c0.6,1.5,1.4,2.9,2.4,4.1c2,2,4.6,3.3,7.5,3.5c-2.1,0-5.2,0.4-7,2.5
	c-2.2,2.5-2.4,7.1-2.5,7.1s0-0.1,0-0.1s-0.4-4-5.4-7.9c-1.7-1.3-3.6-2.4-5.6-3.1C764.9,124.6,767.4,123.6,769.3,121.8z"/>
<path d="M221.5,68.1c10.8,0,19.5,8.7,19.5,19.5s-8.7,19.5-19.5,19.5S202,98.3,202,87.5C202,76.8,210.7,68.1,221.5,68.1
	C221.5,68.1,221.5,68.1,221.5,68.1"/>
<text transform="matrix(1 0 0 1 214.3935 96.61)" class="st0 st3 st5">₽</text>
<circle cx="1021.8" cy="181.7" r="11.3"/>
<text transform="matrix(1 0 0 1 1017.0934 188.58)" class="st0 st3 st6">₽</text>
<circle cx="847.6" cy="80.3" r="22.8"/>
<text transform="matrix(1 0 0 1 831.8934 89.63)" class="st0 st3 st7">%</text>
<path d="M543.6,311.5c-1.5,1.1-2.8,2.4-4,3.8c-4.5,5.2-5.1,10-6.5,9.8c-1.2-0.2-2.3-4.1-1.9-7.7s2.1-4.7,1.5-7.5
	c-0.5-2.3-2.1-2.9-1.9-4.1s2.4-2.6,10.4-3.2"/>
<path d="M577.6,250.4h0.2c1.2,0.1,2.4,0.2,3.6,0.4c5.6,1.1,8.4,4,9.2,3.1s-0.5-3.8-2.7-5.9c-2.5-2.5-4.8-1.9-6.4-4.4
	c-1.3-2-0.7-3.6-1.6-4.1s-2.6,0.3-6.9,5.7"/>
<line class="st1" x1="585.3" y1="260.7" x2="560.7" y2="228.8"/>
</svg>
