<svg width="215" height="49" viewBox="0 0 215 49" fill="none" xmlns="http://www.w3.org/2000/svg">
<path d="M29.4835 28.7905L28.4835 28.7866L28.4835 28.7933L29.4835 28.7905ZM21.2804 20.3565H20.2804V21.2382L21.1551 21.3487L21.2804 20.3565ZM21.2804 20.0724L21.1041 19.0881L20.2804 19.2356V20.0724H21.2804ZM28.1341 12.3842L27.134 12.3811L27.1341 12.3886L28.1341 12.3842ZM2.42383 12.7926L1.42397 12.7757L1.40674 13.7926H2.42383V12.7926ZM9.79244 12.7926V13.7926H10.7609L10.7919 12.8246L9.79244 12.7926ZM20.7299 12.8459L19.7299 12.8394L19.73 12.8521L20.7299 12.8459ZM11.426 17.6399V16.6399H10.426V17.6399H11.426ZM11.426 23.2862H10.426V24.2862H11.426V23.2862ZM21.4934 28.2756L20.4934 28.2695L20.4935 28.2817L21.4934 28.2756ZM9.43732 28.7195L10.4359 28.6662L10.3854 27.7195H9.43732V28.7195ZM1.69585 28.7195V27.7195H0.676101L0.696036 28.739L1.69585 28.7195ZM15.492 40.4972C23.9461 40.4972 30.5035 35.7892 30.4835 28.7876L28.4835 28.7933C28.499 34.2207 23.3732 38.4972 15.492 38.4972V40.4972ZM30.4835 28.7944C30.4932 26.3089 29.7035 24.1095 28.1178 22.44C26.5388 20.7775 24.2505 19.7236 21.4056 19.3644L21.1551 21.3487C23.6547 21.6642 25.4768 22.5635 26.6677 23.8173C27.8518 25.0641 28.4915 26.7444 28.4835 28.7866L30.4835 28.7944ZM22.2804 20.3565V20.0724H20.2804V20.3565H22.2804ZM21.4566 21.0568C25.92 20.2577 29.1543 17.0275 29.134 12.3799L27.1341 12.3886C27.1494 15.9085 24.7729 18.4312 21.1041 19.0881L21.4566 21.0568ZM29.1341 12.3873C29.154 5.93981 23.5069 1.1392 15.5985 1.1392V3.1392C22.747 3.1392 27.1496 7.35848 27.1341 12.3811L29.1341 12.3873ZM15.5985 1.1392C7.79661 1.1392 1.54282 5.76338 1.42397 12.7757L3.42368 12.8096C3.5179 7.25082 8.48571 3.1392 15.5985 3.1392V1.1392ZM2.42383 13.7926H9.79244V11.7926H2.42383V13.7926ZM10.7919 12.8246C10.8569 10.7967 12.7316 9.2294 15.563 9.2294V7.2294C12.1089 7.2294 8.90551 9.2487 8.79295 12.7606L10.7919 12.8246ZM15.563 9.2294C16.917 9.2294 17.9606 9.63769 18.6506 10.2566C19.3311 10.8671 19.7371 11.7421 19.73 12.8394L21.7299 12.8524C21.7405 11.2153 21.1167 9.78206 19.9861 8.76787C18.865 7.76217 17.3163 7.2294 15.563 7.2294V9.2294ZM19.73 12.8521C19.7369 13.9698 19.2758 14.882 18.4643 15.5365C17.6354 16.2048 16.3896 16.6399 14.8173 16.6399V18.6399C16.7429 18.6399 18.4623 18.1073 19.7197 17.0933C20.9944 16.0654 21.7407 14.5806 21.7299 12.8397L19.73 12.8521ZM14.8173 16.6399H11.426V18.6399H14.8173V16.6399ZM10.426 17.6399V23.2862H12.426V17.6399H10.426ZM11.426 24.2862H14.8173V22.2862H11.426V24.2862ZM14.8173 24.2862C16.7211 24.2862 18.1628 24.763 19.1007 25.4777C20.0164 26.1754 20.5004 27.1303 20.4935 28.2695L22.4934 28.2816C22.5043 26.4911 21.7098 24.9514 20.3129 23.8869C18.938 22.8393 17.0328 22.2862 14.8173 22.2862V24.2862ZM20.4935 28.2817C20.5004 29.4152 20.0275 30.3516 19.1966 31.0257C18.35 31.7126 17.0861 32.1584 15.5098 32.1584V34.1584C17.4491 34.1584 19.1859 33.6099 20.4567 32.5789C21.7431 31.5351 22.5042 30.0301 22.4934 28.2694L20.4935 28.2817ZM15.5098 32.1584C12.3879 32.1584 10.5375 30.5715 10.4359 28.6662L8.43874 28.7727C8.62122 32.1941 11.8489 34.1584 15.5098 34.1584V32.1584ZM9.43732 27.7195H1.69585V29.7195H9.43732V27.7195ZM0.696036 28.739C0.834853 35.8385 7.18001 40.4972 15.492 40.4972V38.4972C7.82389 38.4972 2.80542 34.3135 2.69565 28.6999L0.696036 28.739ZM53.0732 17.8175H54.0732V16.8175H53.0732V17.8175ZM36.4893 17.8175V16.8175H35.4893V17.8175H36.4893ZM36.4893 23.8189H35.4893V24.8189H36.4893V23.8189ZM53.0732 23.8189V24.8189H54.0732V23.8189H53.0732ZM53.0732 16.8175H36.4893V18.8175H53.0732V16.8175ZM35.4893 17.8175V23.8189H37.4893V17.8175H35.4893ZM36.4893 24.8189H53.0732V22.8189H36.4893V24.8189ZM54.0732 23.8189V17.8175H52.0732V23.8189H54.0732ZM60.6605 39H59.6605V40H60.6605V39ZM68.3487 39V40H69.3487V39H68.3487ZM68.3487 23.9787V22.9787H67.3487V23.9787H68.3487ZM83.956 23.9787H84.956V22.9787H83.956V23.9787ZM83.956 39H82.956V40H83.956V39ZM91.6264 39V40H92.6264V39H91.6264ZM91.6264 2.63636H92.6264V1.63636H91.6264V2.63636ZM83.956 2.63636V1.63636H82.956V2.63636H83.956ZM83.956 17.6399V18.6399H84.956V17.6399H83.956ZM68.3487 17.6399H67.3487V18.6399H68.3487V17.6399ZM68.3487 2.63636H69.3487V1.63636H68.3487V2.63636ZM60.6605 2.63636V1.63636H59.6605V2.63636H60.6605ZM60.6605 40H68.3487V38H60.6605V40ZM69.3487 39V23.9787H67.3487V39H69.3487ZM68.3487 24.9787H83.956V22.9787H68.3487V24.9787ZM82.956 23.9787V39H84.956V23.9787H82.956ZM83.956 40H91.6264V38H83.956V40ZM92.6264 39V2.63636H90.6264V39H92.6264ZM91.6264 1.63636H83.956V3.63636H91.6264V1.63636ZM82.956 2.63636V17.6399H84.956V2.63636H82.956ZM83.956 16.6399H68.3487V18.6399H83.956V16.6399ZM69.3487 17.6399V2.63636H67.3487V17.6399H69.3487ZM68.3487 1.63636H60.6605V3.63636H68.3487V1.63636ZM59.6605 2.63636V39H61.6605V2.63636H59.6605ZM96.9943 47.7713H95.9943V48.7713H96.9943V47.7713ZM104.381 47.7713V48.7713H105.381V47.7713H104.381ZM104.381 39V38H103.381V39H104.381ZM126.309 39H127.309V38H126.309V39ZM126.309 47.7358H125.309V48.7358H126.309V47.7358ZM133.695 47.7358V48.7358H134.695V47.7358H133.695ZM133.695 32.8743H134.695V31.8743H133.695V32.8743ZM129.718 32.8743H128.718V33.8743H129.718V32.8743ZM129.718 2.63636H130.718V1.63636H129.718V2.63636ZM105.659 2.63636V1.63636H104.724L104.661 2.56954L105.659 2.63636ZM104.629 18.0128L103.631 17.946L103.631 17.9476L104.629 18.0128ZM99.4624 32.8743V33.8743H99.7861L100.048 33.6845L99.4624 32.8743ZM96.9943 32.8743V31.8743H95.9943V32.8743H96.9943ZM108.34 32.8743L107.486 32.3539L106.56 33.8743H108.34V32.8743ZM112.016 18.0128L113.013 18.0793L113.014 18.0755L112.016 18.0128ZM112.584 8.97514V7.97514H111.645L111.586 8.9124L112.584 8.97514ZM122.332 8.97514H123.332V7.97514H122.332V8.97514ZM122.332 32.8743V33.8743H123.332V32.8743H122.332ZM96.9943 48.7713H104.381V46.7713H96.9943V48.7713ZM105.381 47.7713V39H103.381V47.7713H105.381ZM104.381 40H126.309V38H104.381V40ZM125.309 39V47.7358H127.309V39H125.309ZM126.309 48.7358H133.695V46.7358H126.309V48.7358ZM134.695 47.7358V32.8743H132.695V47.7358H134.695ZM133.695 31.8743H129.718V33.8743H133.695V31.8743ZM130.718 32.8743V2.63636H128.718V32.8743H130.718ZM129.718 1.63636H105.659V3.63636H129.718V1.63636ZM104.661 2.56954L103.632 17.946L105.627 18.0796L106.657 2.70319L104.661 2.56954ZM103.631 17.9476C103.015 27.3869 101.004 30.5249 98.8762 32.0641L100.048 33.6845C102.928 31.6015 105.001 27.6727 105.627 18.0779L103.631 17.9476ZM99.4624 31.8743H96.9943V33.8743H99.4624V31.8743ZM95.9943 32.8743V47.7713H97.9943V32.8743H95.9943ZM109.194 33.3947C111.141 30.1999 112.529 25.3485 113.013 18.0793L111.018 17.9463C110.544 25.0592 109.197 29.5472 107.486 32.3539L109.194 33.3947ZM113.014 18.0755L113.582 9.03789L111.586 8.9124L111.018 17.95L113.014 18.0755ZM112.584 9.97514H122.332V7.97514H112.584V9.97514ZM121.332 8.97514V32.8743H123.332V8.97514H121.332ZM122.332 31.8743H108.34V33.8743H122.332V31.8743ZM154.16 35.9105H155.16V34.9105H154.16V35.9105ZM154.16 40.4915H153.16V41.4915H154.16V40.4915ZM161.458 40.4915V41.4915H162.458V40.4915H161.458ZM161.458 35.9105V34.9105H160.458V35.9105H161.458ZM161.458 6.54261H160.458V7.54261H161.458V6.54261ZM161.458 1.99716H162.458V0.997159H161.458V1.99716ZM154.16 1.99716V0.997159H153.16V1.99716H154.16ZM154.16 6.54261V7.54261H155.16V6.54261H154.16ZM154.16 12.9702H155.16V11.9702H154.16V12.9702ZM154.16 29.483V30.483H155.16V29.483H154.16ZM161.458 12.9702V11.9702H160.458V12.9702H161.458ZM161.458 29.483H160.458V30.483H161.458V29.483ZM153.752 5.54261C149.174 5.54261 145.158 7.08716 142.281 9.88261C139.401 12.6817 137.73 16.6694 137.73 21.4219H139.73C139.73 17.1545 141.22 13.7026 143.675 11.317C146.134 8.92775 149.629 7.54261 153.752 7.54261V5.54261ZM137.73 21.4219C137.73 26.0809 139.386 29.9751 142.264 32.7013C145.136 35.4221 149.15 36.9105 153.752 36.9105V34.9105C149.582 34.9105 146.086 33.5669 143.639 31.2495C141.199 28.9376 139.73 25.5875 139.73 21.4219H137.73ZM153.752 36.9105H154.16V34.9105H153.752V36.9105ZM153.16 35.9105V40.4915H155.16V35.9105H153.16ZM154.16 41.4915H161.458V39.4915H154.16V41.4915ZM162.458 40.4915V35.9105H160.458V40.4915H162.458ZM161.458 36.9105H161.884V34.9105H161.458V36.9105ZM161.884 36.9105C166.472 36.9105 170.477 35.4016 173.342 32.6754C176.212 29.9444 177.869 26.0565 177.869 21.4396H175.869C175.869 25.5586 174.402 28.9061 171.963 31.2265C169.519 33.5519 166.031 34.9105 161.884 34.9105V36.9105ZM177.869 21.4396C177.869 16.6821 176.219 12.6899 173.352 9.88687C170.487 7.08689 166.478 5.54261 161.884 5.54261V7.54261C166.025 7.54261 169.509 8.92802 171.954 11.3171C174.395 13.7032 175.869 17.1595 175.869 21.4396H177.869ZM161.884 5.54261H161.458V7.54261H161.884V5.54261ZM162.458 6.54261V1.99716H160.458V6.54261H162.458ZM161.458 0.997159H154.16V2.99716H161.458V0.997159ZM153.16 1.99716V6.54261H155.16V1.99716H153.16ZM154.16 5.54261H153.752V7.54261H154.16V5.54261ZM153.752 13.9702H154.16V11.9702H153.752V13.9702ZM153.16 12.9702V29.483H155.16V12.9702H153.16ZM154.16 28.483H153.752V30.483H154.16V28.483ZM153.752 28.483C151.64 28.483 149.938 27.8737 148.768 26.7542C147.606 25.6424 146.85 23.9119 146.85 21.4219H144.85C144.85 24.3295 145.746 26.6297 147.385 28.199C149.016 29.7605 151.264 30.483 153.752 30.483V28.483ZM146.85 21.4219C146.85 18.7773 147.597 16.9451 148.754 15.7752C149.911 14.605 151.605 13.9702 153.752 13.9702V11.9702C151.211 11.9702 148.954 12.7292 147.332 14.3688C145.71 16.0087 144.85 18.4024 144.85 21.4219H146.85ZM161.458 13.9702H161.937V11.9702H161.458V13.9702ZM161.937 13.9702C164.048 13.9702 165.703 14.6128 166.834 15.7876C167.968 16.966 168.696 18.8068 168.696 21.4396H170.696C170.696 18.4439 169.862 16.0499 168.275 14.4008C166.684 12.748 164.46 11.9702 161.937 11.9702V13.9702ZM168.696 21.4396C168.696 23.8873 167.978 25.6172 166.85 26.7355C165.72 27.8564 164.058 28.483 161.937 28.483V30.483C164.45 30.483 166.668 29.7334 168.259 28.1555C169.852 26.5749 170.696 24.2832 170.696 21.4396H168.696ZM161.937 28.483H161.458V30.483H161.937V28.483ZM162.458 29.483V12.9702H160.458V29.483H162.458ZM181.563 39H180.563V40H181.563V39ZM195.607 21.4574L196.606 21.5039L196.606 21.5022L195.607 21.4574ZM196.176 8.79758V7.79758H195.219L195.177 8.75275L196.176 8.79758ZM206.243 8.79758H207.243V7.79758H206.243V8.79758ZM206.243 39H205.243V40H206.243V39ZM213.718 39V40H214.718V39H213.718ZM213.718 2.63636H214.718V1.63636H213.718V2.63636ZM189.038 2.63636V1.63636H188.074L188.039 2.59907L189.038 2.63636ZM188.434 18.8118L187.435 18.7745L187.435 18.7768L188.434 18.8118ZM182.593 32.7322L182.508 31.7358L182.507 31.7359L182.593 32.7322ZM181.563 32.821L181.477 31.8247L180.563 31.9035V32.821H181.563ZM181.563 40H183.551V38H181.563V40ZM183.551 40C188.162 40 191.405 38.5702 193.489 35.3458C195.494 32.2422 196.322 27.6165 196.606 21.5039L194.609 21.4109C194.325 27.4964 193.501 31.642 191.809 34.2602C190.195 36.7576 187.694 38 183.551 38V40ZM196.606 21.5022L197.175 8.84242L195.177 8.75275L194.608 21.4125L196.606 21.5022ZM196.176 9.79758H206.243V7.79758H196.176V9.79758ZM205.243 8.79758V39H207.243V8.79758H205.243ZM206.243 40H213.718V38H206.243V40ZM214.718 39V2.63636H212.718V39H214.718ZM213.718 1.63636H189.038V3.63636H213.718V1.63636ZM188.039 2.59907L187.435 18.7745L189.433 18.8491L190.037 2.67366L188.039 2.59907ZM187.435 18.7768C187.257 23.8455 186.795 27.0742 185.957 29.0584C185.548 30.0274 185.071 30.6441 184.542 31.0397C184.017 31.4322 183.365 31.6634 182.508 31.7358L182.677 33.7287C183.817 33.6324 184.85 33.3065 185.74 32.6414C186.625 31.9795 187.292 31.0381 187.8 29.8365C188.795 27.4794 189.256 23.9166 189.434 18.8468L187.435 18.7768ZM182.507 31.7359L181.477 31.8247L181.649 33.8173L182.678 33.7285L182.507 31.7359ZM180.563 32.821V39H182.563V32.821H180.563Z" fill="black"/>
</svg>
